<mxfile host="app.diagrams.net" modified="2024-05-07T06:18:45.139Z" agent="Mozilla/5.0 (X11; Linux x86_64) AppleWebKit/537.36 (KHTML, like Gecko) Chrome/122.0.0.0 Safari/537.36" version="24.3.1" etag="SpNrmW37rkrJYUq0wHoB" type="github">
  <diagram name="Page-1" id="8dkIdon7dROiPM6DBQVO">
    <mxGraphModel>
      <root>
        <mxCell id="0" />
        <mxCell id="1" parent="0" />
      </root>
    </mxGraphModel>
  </diagram>
</mxfile>
